<svg width="32" height="32" viewBox="0 0 32 32" fill="none" xmlns="http://www.w3.org/2000/svg">
<path d="M21.5773 21.8319C20.486 21.2043 20.1121 19.8143 20.7421 18.7273C21.3722 17.6403 22.7676 17.2678 23.8588 17.8954C24.9501 18.523 25.324 19.913 24.6939 21C24.0639 22.087 22.6685 22.4595 21.5773 21.8319Z" fill="#262B38"/>
<path d="M23.8588 14.1046C22.7676 14.7322 21.3722 14.3597 20.7422 13.2727C20.1121 12.1857 20.486 10.7957 21.5773 10.1681C22.6685 9.54051 24.0639 9.91295 24.6939 11C25.324 12.087 24.9501 13.477 23.8588 14.1046Z" fill="#262B38"/>
<path d="M16 26C17.2601 26 18.2816 24.9825 18.2816 23.7273C18.2816 22.4721 17.2601 21.4545 16 21.4545C14.7399 21.4545 13.7184 22.4721 13.7184 23.7273C13.7184 24.9825 14.7399 26 16 26Z" fill="#262B38"/>
<path d="M18.2816 16C18.2816 17.2552 17.2601 18.2727 16 18.2727C14.7399 18.2727 13.7184 17.2552 13.7184 16C13.7184 14.7448 14.7399 13.7273 16 13.7273C17.2601 13.7273 18.2816 14.7448 18.2816 16Z" fill="#262B38"/>
<path d="M18.2816 8.27273C18.2816 9.52792 17.2601 10.5455 16 10.5455C14.7399 10.5455 13.7184 9.52792 13.7184 8.27273C13.7184 7.01753 14.7399 6 16 6C17.2601 6 18.2816 7.01753 18.2816 8.27273Z" fill="#262B38"/>
<path d="M7.30605 21C7.93609 22.0871 9.33147 22.4595 10.4227 21.8319C11.514 21.2043 11.8879 19.8143 11.2578 18.7273C10.6278 17.6403 9.23242 17.2678 8.14116 17.8954C7.04991 18.523 6.67602 19.913 7.30605 21Z" fill="#262B38"/>
<path d="M7.30606 11C6.67603 12.087 7.04992 13.477 8.14117 14.1046C9.23243 14.7322 10.6278 14.3598 11.2578 13.2727C11.8879 12.1857 11.514 10.7957 10.4227 10.1681C9.33148 9.54055 7.9361 9.91299 7.30606 11Z" fill="#262B38"/>
</svg>
