<svg width="32" height="32" viewBox="0 0 32 32" fill="none" xmlns="http://www.w3.org/2000/svg">
<path d="M12.2787 16.0163L16.0242 10.73L19.4487 15.5715L17.484 21.2275H14.3521L12.2787 16.0163ZM16.3089 26L17.8449 21.5708H23.0098L16.3089 26ZM11.7942 16.0163L8.10451 21.2275H8.02416L8.00001 21.2109L10.2778 12.2054L11.7942 16.0163ZM8.5857 21.5708H14.0033L15.7594 25.9837L8.5857 21.5708ZM15.7794 10.3868L12.1064 15.5779L10.615 11.8296L16.0395 6L20.7724 11.7671L19.6099 15.1104L16.2657 10.3868L16.3214 10.3083L16.157 10.2329L16.0887 10.1382L16.0246 10.1674L15.9563 10.1382L15.8885 10.2329L15.7241 10.3083L15.7794 10.3868ZM17.9647 21.2275L19.7692 16.0261L23.4543 21.2275H17.9647ZM8.59313 21.2275L11.9698 16.4547L13.8662 21.2275H8.59406H8.59313ZM23.8073 21.0441L19.9299 15.5654L21.0725 12.2778L24 20.9168L23.8073 21.0441ZM16.0242 25.4339L14.4886 21.5708H17.3674L16.0242 25.4339Z" fill="#262B38"/>
</svg>
