<svg width="64" height="64" viewBox="0 0 64 64" fill="none" 
  xmlns="http://www.w3.org/2000/svg">
  <path fill-rule="evenodd" clip-rule="evenodd" d="M32.0005 60.0011C47.4648 60.0011 60.0011 47.4648 60.0011 32.0005C60.0011 16.5363 47.4648 4 32.0005 4C16.5363 4 4 16.5363 4 32.0005C4 47.4648 16.5363 60.0011 32.0005 60.0011ZM42.3803 21.6201C43.4738 22.7136 43.4738 24.4865 42.3803 25.58L35.9601 32.0002L42.3803 38.4204C43.4738 39.5139 43.4738 41.2868 42.3803 42.3803C41.2868 43.4738 39.5139 43.4738 38.4204 42.3803L32.0002 35.9601L25.58 42.3803C24.4865 43.4738 22.7136 43.4738 21.6201 42.3803C20.5266 41.2868 20.5266 39.5139 21.6201 38.4204L28.0403 32.0002L21.6201 25.58C20.5266 24.4865 20.5266 22.7136 21.6201 21.6201C22.7136 20.5266 24.4865 20.5266 25.58 21.6201L32.0002 28.0403L38.4204 21.6201C39.5139 20.5266 41.2868 20.5266 42.3803 21.6201Z" />
</svg>
