<svg width="32" height="32" viewBox="0 0 32 32" fill="none" xmlns="http://www.w3.org/2000/svg">
<path d="M12.25 17.1111H11C14.6474 15.1493 16.7336 13.9006 20.2045 12.5741C21.4122 11.5954 22.117 11.051 23.3864 11C24.448 11.0194 25.0273 11.324 26 12.3889C24.6665 12.8041 23.9274 13.0442 23.5 14.2407C23.045 15.5526 22.6224 16.1247 21.4545 16.7407C19.2197 17.6944 17.7058 18.2539 18.0455 18.963C18.3652 19.8144 19.0002 20.2529 20.5455 21C19.6129 20.8247 19.065 20.8299 18.0455 21L18.5 20.6296C18.2704 20.3251 17.9434 20.0828 17.25 19.6111C16.9728 19.352 16.8461 19.1708 16.6818 18.7778H15.3182L16.1136 18.4074C14.1104 18.3816 12.104 18.8269 7.47727 20.1667C7.52375 20.017 7.44905 20.0189 7.13636 20.1667C6.75349 20.1669 6.5147 20.167 6 20.1667C6.30126 19.9551 6.50745 19.8328 6.90909 19.6111H6.34091C8.34729 18.7259 9.61843 18.1855 12.25 17.1111Z" fill="#262B38"/>
</svg>
