<svg width="48" height="48" viewBox="0 0 48 48" fill="none" xmlns="http://www.w3.org/2000/svg">
<circle cx="24" cy="24" r="20" fill="#002DC2"/>
<path d="M29 28L30.0607 29.0607L32.6213 26.5L29 26.5L29 28ZM23.5607 35.5607L30.0607 29.0607L27.9393 26.9393L21.4393 33.4393L23.5607 35.5607ZM29 26.5L14 26.5L14 29.5L29 29.5L29 26.5Z" fill="white"/>
<path d="M18 19.5L16.9393 18.4393L14.3787 21L18 21L18 19.5ZM23.4393 11.9393L16.9393 18.4393L19.0607 20.5607L25.5607 14.0607L23.4393 11.9393ZM18 21L33 21L33 18L18 18L18 21Z" fill="white"/>
</svg>
